HIERARCHY
ROOT Hips
{
	OFFSET -3.958830 18.904000 13.208200
	CHANNELS 6 Xposition Yposition Zposition Zrotation Yrotation Xrotation 
	JOINT LHipJoint
	{
		OFFSET 0.000000 0.000000 0.000000
		CHANNELS 3 Zrotation Yrotation Xrotation
		JOINT LeftUpLeg
		{
			OFFSET 1.800000 -1.400000 0.085000
			CHANNELS 3 Zrotation Yrotation Xrotation
			JOINT LeftLeg
			{
				OFFSET 2.215000 -6.000000 0.000000
				CHANNELS 3 Zrotation Yrotation Xrotation
				JOINT LeftFoot
				{
					OFFSET 2.500000 -6.900000 0.000000
					CHANNELS 3 Zrotation Yrotation Xrotation
					JOINT LeftToeBase
					{
						OFFSET 0.200000 -0.500000 1.950000
						CHANNELS 3 Zrotation Yrotation Xrotation
						End Site
						{
							OFFSET 0.000000 0.000000 0.000000
						}
					}
				}
			}
		}
	}
	JOINT RHipJoint
	{
		OFFSET 0.000000 0.000000 0.000000
		CHANNELS 3 Zrotation Yrotation Xrotation
		JOINT RightUpLeg
		{
			OFFSET -1.800000 -1.400000 0.085000
			CHANNELS 3 Zrotation Yrotation Xrotation
			JOINT RightLeg
			{
				OFFSET -2.215000 -6.000000 0.000000
				CHANNELS 3 Zrotation Yrotation Xrotation
				JOINT RightFoot
				{
					OFFSET -2.500000 -6.900000 0.000000
					CHANNELS 3 Zrotation Yrotation Xrotation
					JOINT RightToeBase
					{
						OFFSET -0.200000 -0.500000 1.950000
						CHANNELS 3 Zrotation Yrotation Xrotation
						End Site
						{
							OFFSET 0.000000 0.000000 0.000000
						}
					}
				}
			}
		}
	}
	JOINT LowerBack
	{
		OFFSET 0.000000 0.000000 0.000000
		CHANNELS 3 Zrotation Yrotation Xrotation
		JOINT Spine
		{
			OFFSET -0.087000 1.940000 -0.288900
			CHANNELS 3 Zrotation Yrotation Xrotation
			JOINT Spine1
			{
				OFFSET 0.000000 1.950000 0.060000
				CHANNELS 3 Zrotation Yrotation Xrotation
				JOINT Neck
				{
					OFFSET 0.000000 0.000000 0.000000
					CHANNELS 3 Zrotation Yrotation Xrotation
					JOINT Neck1
					{
						OFFSET 0.000000 1.600000 0.340000
						CHANNELS 3 Zrotation Yrotation Xrotation
						JOINT Head
						{
							OFFSET 0.000000 1.667000 -0.240000
							CHANNELS 3 Zrotation Yrotation Xrotation
							End Site
							{
								OFFSET 0.000000 0.000000 0.000000
							}
						}
					}
				}
				JOINT LeftShoulder
				{
					OFFSET 0.000000 0.000000 0.000000
					CHANNELS 3 Zrotation Yrotation Xrotation
					JOINT LeftArm
					{
						OFFSET 2.700000 1.550000 -0.730000
						CHANNELS 3 Zrotation Yrotation Xrotation
						JOINT LeftForeArm
						{
							OFFSET 5.450000 0.000000 0.000000
							CHANNELS 3 Zrotation Yrotation Xrotation
							JOINT LeftHand
							{
								OFFSET 3.450000 0.000000 0.000000
								CHANNELS 3 Zrotation Yrotation Xrotation
								JOINT LeftHandIndex1
								{
									OFFSET 0.750000 0.000000 0.000000
									CHANNELS 3 Zrotation Yrotation Xrotation
									End Site
									{
										OFFSET 0.000000 0.000000 0.000000
									}
								}
							}
						}
					}
				}
				JOINT RightShoulder
				{
					OFFSET 0.000000 0.000000 0.000000
					CHANNELS 3 Zrotation Yrotation Xrotation
					JOINT RightArm
					{
						OFFSET -2.700000 1.550000 -0.730000
						CHANNELS 3 Zrotation Yrotation Xrotation
						JOINT RightForeArm
						{
							OFFSET -5.450000 0.000000 0.000000
							CHANNELS 3 Zrotation Yrotation Xrotation
							JOINT RightHand
							{
								OFFSET -3.450000 0.000000 0.000000
								CHANNELS 3 Zrotation Yrotation Xrotation
								JOINT RightHandIndex1
								{
									OFFSET -0.750000 0.000000 0.000000
									CHANNELS 3 Zrotation Yrotation Xrotation
									End Site
									{
										OFFSET 0.000000 0.000000 0.000000
									}
								}
							}
						}
					}
				}
			}
		}
	}
}
MOTION
Frames: 14
Frame Time: 0.016667
-0.190950 16.616010 -2.623420 -3.407601 -18.803991 10.716906 -15.291200 13.583845 3.011334 13.879232 -2.756359 -18.276463 -7.105651 5.360181 8.230306 -0.862099 5.076224 3.292305 -0.694520 -1.236430 -0.777310 18.191786 -10.048719 2.438297 -8.750585 2.663045 -26.006042 0.299449 -3.008254 11.212008 0.648485 -2.574025 3.789154 -0.282530 1.500510 0.113530 -3.172218 -3.626921 -6.499816 7.237455 -4.163359 2.011740 0.771531 -3.765945 -5.054585 -2.558061 -5.280900 -3.208197 -9.451486 8.167312 14.502281 1.089510 0.687940 9.214360 -18.777318 11.393887 0.105600 -60.717439 -4.107746 -2.820084 94.879614 -54.300795 -59.884814 -4.627166 1.771453 0.105110 0.892940 -1.048270 0.153030 24.716619 -9.694059 -1.602693 56.202235 -6.196151 -10.667815 -7.317887 21.134037 -1.817020 1.786920 -1.132068 -0.870670 0.663430 0.870630 -0.110510 
-0.218180 16.611690 -2.622760 -3.740696 -19.194561 11.019489 -15.292918 13.575741 3.001760 14.338302 -2.724014 -18.313801 -6.902031 5.348314 8.202909 -0.843706 5.077802 3.293866 -0.702920 -1.239650 -0.784220 18.193776 -10.025567 2.461963 -8.368281 2.827178 -26.128415 0.587386 -3.047934 11.360792 0.652039 -2.568025 3.800339 -0.291120 1.505740 0.112640 -3.175390 -3.623098 -6.502405 7.405572 -4.307610 1.991383 1.031290 -3.914538 -5.520473 -2.540319 -5.242589 -3.032320 -9.432698 8.846153 14.264973 1.034880 1.220230 9.401120 -18.957839 11.903234 0.074066 -60.739239 -2.723131 -3.652189 94.425809 -53.233292 -58.155371 -4.629788 1.830530 0.096140 0.898440 -1.049290 0.155760 24.912357 -10.189837 -1.843725 55.759012 -6.056412 -10.703839 -7.125268 21.934619 -1.799444 1.784528 -1.135049 -0.866350 0.660020 0.866720 -0.105280 
-0.265910 16.611890 -2.621810 -4.325736 -20.111587 11.500240 -15.289567 13.613003 2.987276 14.899818 -2.634847 -18.101485 -6.217633 5.209869 7.927446 -0.806343 4.998271 3.308086 -0.714100 -1.250290 -0.786810 18.190219 -9.993294 2.527129 -7.613481 3.134711 -26.395459 1.008450 -3.116666 11.710671 0.639368 -2.510648 3.827156 -0.328900 1.465160 0.103760 -3.167068 -3.672627 -6.559139 7.634490 -4.657880 2.364547 1.464754 -4.232804 -6.854638 -2.386436 -5.331909 -2.905552 -9.730048 10.312675 14.423160 1.504030 2.252580 9.350790 -19.065400 12.991644 0.148475 -60.712036 0.555300 -5.374469 93.449519 -51.738281 -55.159955 -4.577364 1.913882 0.125130 0.859000 -1.017490 0.149160 24.825938 -11.144439 -2.225468 55.245217 -5.684316 -10.777201 -6.340511 23.400680 -1.609195 1.802310 -1.105714 -0.848230 0.633670 0.856870 -0.108600 
-0.335620 16.614270 -2.623730 -4.694788 -21.060562 11.832432 -15.303098 13.710197 2.959224 15.346222 -2.546906 -17.909622 -5.225166 5.081137 8.051449 -0.752334 4.918327 3.330171 -0.760500 -1.310550 -0.816910 18.159045 -9.958346 2.606896 -7.241672 3.412610 -26.722869 2.030686 -3.369899 12.365607 0.635947 -2.496777 3.843258 -0.399870 1.444650 0.095560 -3.079260 -3.810156 -6.639937 6.988925 -4.896438 2.774626 2.482975 -4.401223 -7.879906 -2.287146 -5.339563 -3.311185 -9.860533 11.604827 14.887382 2.459170 2.800180 9.997780 -18.115547 13.581673 0.738252 -61.712273 4.191339 -7.511423 90.924956 -49.941313 -50.631469 -4.516199 2.007115 0.154430 0.820910 -0.996140 0.141340 23.919733 -11.551447 -2.154358 55.801370 -5.711204 -11.396968 -5.746745 26.699512 -1.433075 1.808711 -1.074754 -0.835900 0.605950 0.863330 -0.101780 
-0.409190 16.620550 -2.622970 -4.913174 -21.436186 12.059922 -15.307521 13.815571 2.917568 15.625884 -2.479331 -17.911451 -4.080473 4.956737 8.556677 -0.695046 4.806651 3.357072 -0.794630 -1.347930 -0.848010 18.131846 -9.948898 2.686225 -7.236305 3.599806 -26.980317 3.505210 -3.783459 13.226357 0.625325 -2.549864 3.832557 -0.461530 1.415610 0.085800 -3.007540 -3.919702 -6.717188 6.421125 -4.987483 3.214655 3.482599 -4.421966 -8.810654 -2.273966 -5.464586 -3.831220 -10.113776 12.248618 15.253013 3.395610 2.736110 10.565740 -16.838332 14.236383 1.284513 -62.468650 7.274226 -9.232868 86.524775 -49.673048 -45.839558 -4.432346 2.048535 0.168070 0.780570 -0.976450 0.133500 22.824759 -11.930221 -1.733538 56.546079 -6.696476 -12.483125 -5.032900 31.837320 -1.176813 1.788432 -1.081920 -0.807810 0.571450 0.863660 -0.087890 
-0.482580 16.621920 -2.608410 -4.821396 -21.025076 12.128737 -15.329705 13.922270 2.870620 15.614500 -2.482525 -18.192206 -2.916376 4.816814 9.247407 -0.653531 4.717341 3.389553 -0.833740 -1.400710 -0.875540 18.092065 -9.939436 2.727340 -7.817376 3.599578 -26.969352 5.358311 -4.372136 14.144917 0.615888 -2.720406 3.771236 -0.514550 1.413940 0.093440 -2.898001 -4.068461 -6.744409 5.494897 -4.997898 3.290278 4.956283 -4.364746 -9.391547 -2.437705 -5.422835 -4.191574 -10.040061 12.251889 15.269267 3.448340 2.647100 11.688750 -15.062178 15.223863 1.802862 -63.145119 9.632769 -10.674106 78.887809 -51.531172 -40.425312 -4.359485 2.043186 0.155460 0.775030 -0.979920 0.129480 21.625609 -12.727277 -1.327610 56.884781 -8.228098 -13.792707 -4.450324 38.096698 -0.885497 1.740329 -1.150938 -0.788820 0.534450 0.869000 -0.074900 
-0.550340 16.622330 -2.588270 -4.755960 -19.764894 12.047408 -15.330837 13.988955 2.798551 15.495122 -2.508729 -18.775885 -1.449110 4.618666 10.249357 -0.660217 4.635732 3.424791 -0.883420 -1.476200 -0.895210 18.076062 -9.983130 2.748104 -8.586112 3.437884 -26.417049 7.366415 -5.046054 14.690626 0.602287 -2.959549 3.684747 -0.561820 1.425300 0.097890 -2.866763 -4.077225 -6.737018 5.017603 -4.757357 3.172587 5.914203 -4.147095 -9.202740 -2.561405 -5.094723 -4.701047 -9.332814 11.283423 15.386696 2.876710 2.407350 12.632790 -12.613481 15.639058 2.398017 -63.774087 10.456790 -12.103867 67.447052 -54.558461 -34.098056 -4.304087 2.062696 0.156540 0.784330 -0.995650 0.118340 19.509032 -13.244901 -0.927195 59.616064 -9.252502 -15.569463 -7.513697 42.370060 -1.822209 1.686440 -1.172735 -0.800220 0.517060 0.889270 -0.079490 
-0.618910 16.630980 -2.576010 -4.619549 -18.300099 11.682635 -15.344896 14.073812 2.754388 15.327976 -2.540727 -19.497376 0.077611 4.401326 11.367333 -0.662920 4.516811 3.447492 -0.905390 -1.507120 -0.872930 18.039447 -10.034506 2.768654 -9.184398 3.220413 -25.559522 9.068324 -5.622800 14.970218 0.568922 -3.142719 3.617016 -0.598180 1.375620 0.089030 -2.780015 -4.121036 -6.785182 3.975291 -4.164364 3.434377 7.391511 -3.540307 -9.035466 -2.701440 -4.794096 -5.222185 -8.749729 9.651504 16.405946 2.146970 2.047790 12.624110 -10.561979 15.615421 2.874804 -63.878409 10.335945 -13.255319 52.860701 -57.153038 -26.890901 -4.260272 2.210392 0.181500 0.758650 -0.969670 0.087920 17.849846 -13.222843 -0.361783 61.310204 -10.434635 -16.992365 -10.010676 44.252664 -2.637369 1.668686 -1.154277 -0.792990 0.496110 0.887930 -0.099240 
-0.676180 16.643130 -2.569250 -4.048925 -16.047894 11.030376 -15.376115 14.161209 2.727864 14.443848 -2.687509 -20.481897 1.717725 4.077624 12.685052 -0.689255 4.369655 3.475655 -0.884520 -1.502200 -0.816040 17.983836 -10.085540 2.776897 -10.330841 2.802175 -24.420128 10.910417 -6.252540 14.957235 0.506603 -3.367322 3.515936 -0.611620 1.305020 0.100280 -2.652548 -4.213774 -6.839062 2.476964 -3.503571 3.801233 9.016058 -2.876919 -8.816423 -2.910534 -4.616939 -5.554303 -8.492027 7.529394 17.653727 1.169460 1.285390 11.953240 -9.620213 14.931609 2.937312 -63.278661 9.083389 -13.232398 37.875254 -56.639270 -19.275492 -4.273160 2.449733 0.224350 0.721720 -0.921950 0.065720 17.453545 -12.453114 0.396634 61.483138 -12.142977 -18.359314 -12.538168 45.416240 -3.546988 1.646162 -1.160496 -0.774570 0.469300 0.870800 -0.126460 
-0.730890 16.653300 -2.568940 -3.586357 -13.813199 10.335799 -15.400328 14.205380 2.710344 13.636769 -2.833279 -21.483426 3.326428 3.751538 14.091501 -0.719038 4.259345 3.492813 -0.841110 -1.462310 -0.751450 17.942519 -10.157919 2.769547 -11.044737 2.434409 -23.138563 11.994146 -6.618068 14.770650 0.451640 -3.523339 3.441145 -0.595630 1.235040 0.098700 -2.568638 -4.207271 -6.878734 1.295674 -2.593742 4.173301 10.236405 -2.026578 -8.248462 -3.113540 -4.498665 -5.779901 -8.350443 5.253779 18.699890 0.200950 0.201040 11.010050 -9.682900 13.644551 2.550028 -61.837760 6.862573 -12.155366 25.991573 -53.317683 -13.053371 -4.295789 2.603942 0.255020 0.683640 -0.880440 0.052260 17.957172 -11.010075 1.467212 60.910442 -14.195615 -19.781520 -12.896347 47.342803 -4.095504 1.609411 -1.199910 -0.758730 0.457880 0.842370 -0.150340 
-0.787470 16.655300 -2.567280 -3.233265 -11.697564 9.611471 -15.396088 14.221997 2.676242 12.665201 -2.982399 -22.260946 5.423856 3.268080 15.590692 -0.751921 4.175715 3.504577 -0.801760 -1.431530 -0.690840 17.928407 -10.264391 2.782266 -11.594060 2.124905 -21.815339 12.963217 -6.934273 14.527201 0.399540 -3.668426 3.370169 -0.578030 1.174830 0.092680 -2.572780 -4.071636 -6.923126 0.801203 -1.723487 4.698254 10.414402 -1.236227 -7.773590 -3.188306 -4.478944 -6.081218 -8.357571 3.354090 19.620939 -0.261080 -1.059990 9.950900 -10.282211 12.225722 2.036616 -59.466534 5.047173 -10.944984 17.880518 -50.148427 -9.117163 -4.299638 2.665881 0.292540 0.642420 -0.843040 0.038530 18.626737 -9.410369 2.569456 60.717242 -15.878144 -20.934362 -10.548960 48.942151 -3.829833 1.582003 -1.223675 -0.754020 0.458260 0.820860 -0.173280 
-0.832860 16.655500 -2.565350 -2.939233 -9.782332 8.748398 -15.375640 14.187421 2.628756 11.685583 -3.065293 -22.433922 7.195288 2.788049 16.562644 -0.797705 4.114018 3.507038 -0.738300 -1.377080 -0.615930 17.932833 -10.392452 2.804331 -12.206155 1.852894 -20.488100 13.916454 -7.253968 14.315079 0.336398 -3.838834 3.287657 -0.542790 1.105580 0.089960 -2.632302 -3.798074 -6.961685 0.811475 -0.670894 5.164086 9.883567 -0.294807 -6.897290 -3.021214 -4.396153 -6.354429 -8.290452 1.637464 20.743615 -0.886560 -2.103400 8.639430 -11.882794 10.060775 1.460181 -56.808645 3.087134 -9.852050 12.828113 -47.211400 -6.886803 -4.290210 2.681301 0.336530 0.600700 -0.804380 0.027630 19.699571 -7.044717 3.555072 59.870639 -16.668853 -21.000348 -8.107277 47.030080 -3.242000 1.584382 -1.224053 -0.747820 0.456360 0.794360 -0.205750 
-0.871850 16.643750 -2.559030 -2.856271 -7.979803 8.047851 -15.324824 14.106446 2.579033 11.052350 -3.076630 -22.435857 8.419449 2.435081 17.203878 -0.799135 4.095199 3.515774 -0.704170 -1.337090 -0.598280 17.976174 -10.551674 2.807635 -12.351173 1.706075 -19.599525 14.184534 -7.478572 14.656627 0.306748 -3.992798 3.225791 -0.515250 1.099660 0.099120 -2.796187 -3.388627 -6.957196 1.737464 0.240665 5.322515 8.643765 0.562265 -5.973274 -2.910599 -4.426923 -6.513318 -8.286904 0.269113 21.308436 -1.078470 -3.496930 8.640320 -13.755964 8.053387 0.973124 -54.475840 1.396857 -9.068994 11.046258 -45.640282 -6.134221 -4.306662 2.690449 0.319000 0.601880 -0.801230 0.036550 21.044229 -4.778005 4.317331 57.908181 -17.115279 -19.996930 -3.987949 43.676541 -2.088698 1.615411 -1.243615 -0.730260 0.457210 0.778860 -0.196450 
-0.903420 16.623250 -2.550670 -2.837810 -6.345039 7.438796 -15.261405 14.036702 2.535010 10.717526 -3.005990 -22.246890 8.905769 2.288366 17.615240 -0.804638 4.087982 3.523930 -0.666390 -1.280110 -0.608480 18.033411 -10.685853 2.807184 -12.417856 1.600160 -18.918914 14.307654 -7.646921 15.080990 0.285797 -4.116414 3.184628 -0.472210 1.106230 0.079140 -2.998867 -3.041926 -6.942874 3.225576 0.732693 5.494749 7.303280 1.136193 -5.251038 -2.992527 -5.190685 -6.545467 -9.486600 -0.520447 21.378619 -0.544190 -5.274790 8.287380 -15.339568 6.997526 0.574790 -53.402400 0.340976 -8.753400 11.087745 -45.719339 -6.241591 -4.287318 2.692150 0.299880 0.590730 -0.811690 0.061800 22.452640 -2.956902 4.888487 54.895155 -17.326029 -18.507692 0.865511 40.952220 -0.857438 1.639351 -1.272173 -0.725280 0.484270 0.763720 -0.174550 
